<?xml version="1.0" encoding="UTF-8"?>
<svg xmlns="http://www.w3.org/2000/svg" width="25.2842mm" height="25.2379mm" viewBox="0 0 71.6717 71.5406">
    <defs>
        <style>.d{fill:#0098d0;}</style>
    </defs>
    <g id="a"/>
    <g id="b">
        <g id="c">
            <g>
                <path class="d"
                      d="M25.9518,45.2551h16.78c.07-.139,.147-.287,.225-.434,1.888-3.653,3.274-6.416,3.731-7.33l.069-.131c1.641-3.274,4.327-8.452,7.98-15.395l.828-1.571h12.617C62.6008,8.7371,50.8908,.5021,37.0828,.0221,22.3918-.4889,9.4498,7.9171,3.4898,20.3941h13.762l6.308,13.498,4.389-1.896-1.989,13.259h-.008Z"/>
                <path class="d"
                      d="M15.3789,55.859v-10.612h9.629l-11.417-7.058,4.567-1.974-4.652-9.954H1.2919C.5569,28.916,.1229,31.695,.0219,34.574c-.665,19.18,13.863,35.364,32.78,36.958v-15.673H15.3789Z"/>
                <path class="d"
                      d="M71.6414,37.0816c-.643,18.336-14.946,32.965-32.779,34.459v-15.674h17.422v-10.612h-6.95c1.308-2.538,2.237-4.403,2.601-5.123l.07-.132c1.501-2.987,3.885-7.6,7.105-13.723h11.269c.952,3.429,1.401,7.067,1.27,10.813l-.008-.008Z"/>
            </g>
        </g>
    </g>
</svg>